<svg xmlns="http://www.w3.org/2000/svg" viewBox="0 0 664.3 217.6"><path d="M180.7 33.7V0h-32.5L90.4 157.4 32.5 0H0v33.7l68.7 180.8h43.6l68.5-180.8zM246.1 58.2c-23.1 0-41.6 7.2-55.6 21.6-13.9 14.4-20.9 33.7-20.9 58.1s6.9 43.7 20.9 58.1c14 14.4 32.5 21.6 55.6 21.6s41.6-7.2 55.6-21.6c13.9-14.4 20.9-33.7 20.9-58.1s-6.9-43.7-20.9-58.1-32.6-21.6-55.6-21.6zM271 169.6c-5.8 7.4-14.1 11.2-25 11.2s-19.2-3.7-25-11.2-8.7-18.1-8.7-31.7c0-13.7 2.9-24.3 8.7-31.7 5.9-7.5 14.2-11.2 25-11.2 10.9 0 19.2 3.7 25 11.2s8.7 18.1 8.7 31.7c0 13.7-2.9 24.2-8.7 31.7zM344.2 0H387v214.5h-42.8zM530.6 137.3c-3.4-2.9-7.9-5.5-13.4-7.8-5.6-2.3-10-3.8-13.4-4.6-3.3-.9-7.6-1.6-12.7-2.5-2.1-.4-5.6-.9-10.6-1.5-5-.7-8.5-1.2-10.6-1.7s-4.6-1.2-7.7-2.3c-3-.9-5.1-2.3-6.3-3.8-1.1-1.5-1.7-3.5-1.7-6 0-4.5 1.6-7.7 4.9-9.5s8.8-2.7 16.6-2.7c18.1 0 21.4 4.3 21.4 12.2H540c0-18.9-5.9-29.1-17.7-37.1S495 58.1 475.8 58.1c-21.7 0-37.8 4.3-48.4 13s-15.9 19.7-15.9 33c0 26.2 19.3 42.5 58.2 49 1.7.2 4.1.6 7.4 1s5.6.9 6.9 1.2 3.1.8 5.5 1.2c2.4.6 3.6 1.1 4.7 1.7.8.4 2.1 1.3 3 2.1.9.9 2.1 2.2 2.5 3.6.4 1.3.6 2.8.6 4.5 0 8.1-8.2 12.2-24.5 12.2-8.1 0-14.3-1.1-18.4-3.4-3.2-1.6-6.2-4.6-6.2-15h-42.8c0 19.6 6 31.2 17.9 40.7 11.9 9.6 28.4 14.4 49.5 14.4 22.9 0 39.8-4.7 50.9-14.2s16.6-21.1 16.6-34.8c0-6.9-1.3-13.1-3.6-18.6-2.7-5.3-5.6-9.4-9.1-12.4zM664.3 97.9V61.2h-39.9V27.6h-42.8v33.7h-27.4V98h27.5v70.4c0 15.7 4.9 27.3 14.7 34.8s22.2 11.2 37.3 11.2h30.6v-36.7h-30.6c-6.2 0-9.2-3-9.2-9.2V97.9h39.8z"/></svg>