<?xml version="1.0" encoding="utf-8"?>
<svg version="1.1"
	 viewBox="0 0 2 2">
	<path fill="#1A1821" d="M0.4171534,0.4964775C0.4250113,0.5066386,0.4289403,0.5209996,0.4289403,0.539425c0,0.0185609-0.003929,0.0327864-0.0117869,0.0429475C0.4092955,0.592398,0.3980506,0.5975463,0.3832832,0.5975463c-0.0147674,0-0.0260124-0.0050128-0.0338702-0.0151739C0.341555,0.5722114,0.3376261,0.5578504,0.3376261,0.539425c0-0.0185609,0.003929-0.0329219,0.0117868-0.0429475c0.0079934-0.0101611,0.0192383-0.0151738,0.0338702-0.0151738C0.3980506,0.4813037,0.4092955,0.4863164,0.4171534,0.4964775z M0.2948141,0.3982538V0.3525967H0.2507828l-0.078308,0.2132471L0.0940313,0.3525967H0.05v0.0456571l0.0930754,0.2449496h0.0590697l0.0928045-0.2449496H0.2948141z M0.4587461,0.4607106c0.0189673,0.0195092,0.0283155,0.045657,0.0283155,0.0787144S0.477578,0.5986302,0.4587461,0.6181394C0.4397787,0.6376486,0.4147148,0.6474033,0.3834187,0.6474033c-0.0312961,0-0.0563601-0.0097547-0.0753275-0.0292639C0.2891239,0.5986302,0.2797758,0.5724823,0.2797758,0.539425c0-0.0330574,0.0094837-0.0592052,0.0283155-0.0787144c0.0189673-0.0195093,0.0440313-0.0292639,0.0753275-0.0292639C0.4145793,0.4314466,0.4397787,0.4412013,0.4587461,0.4607106z M0.4289403,0.539425c0-0.0184253-0.003929-0.0327864-0.0117869-0.0429475C0.4092955,0.4863164,0.3980506,0.4813037,0.3832832,0.4813037c-0.0146319,0-0.0258768,0.0050127-0.0338702,0.0151738C0.341555,0.5065031,0.3376261,0.5208641,0.3376261,0.539425c0,0.0184254,0.003929,0.0327864,0.0117868,0.0429475c0.0078579,0.0101611,0.0191029,0.0151739,0.0338702,0.0151739c0.0147674,0,0.0260124-0.0051484,0.0338702-0.0151739C0.4250113,0.5722114,0.4289403,0.5579859,0.4289403,0.539425z M0.5163255,0.6432034h0.0579858V0.3525967H0.5163255V0.6432034z M0.7688619,0.5386121c-0.0046064-0.003929-0.010703-0.0074515-0.0181545-0.0105676c-0.0075869-0.003116-0.0135481-0.0051482-0.0181544-0.0062321c-0.0044709-0.0012193-0.0102966-0.0021676-0.0172061-0.003387C0.7125018,0.5178835,0.70776,0.5172061,0.7009859,0.5163932C0.6942119,0.5154448,0.6894701,0.5147674,0.686625,0.51409C0.6837798,0.5134126,0.6803928,0.5124643,0.6761929,0.510974C0.6721285,0.5097546,0.6692833,0.5078579,0.6676577,0.5058257C0.6661673,0.5037935,0.6653544,0.5010839,0.6653544,0.4976968c0-0.0060966,0.0021677-0.010432,0.0066385-0.0128707c0.0044709-0.0024386,0.0119223-0.003658,0.0224899-0.003658c0.024522,0,0.0289929,0.0058257,0.0289929,0.0165287h0.0581214c0-0.0256059-0.0079934-0.039425-0.0239801-0.0502635S0.7206308,0.4313112,0.6946184,0.4313112c-0.0293994,0-0.0512118,0.0058256-0.0655727,0.0176125c-0.014361,0.0117868-0.0215415,0.0266898-0.0215415,0.0447087c0,0.035496,0.0261478,0.0575794,0.07885,0.0663857c0.0023032,0.000271,0.0055547,0.0008129,0.0100256,0.0013548c0.0044708,0.0005419,0.0075869,0.0012193,0.0093482,0.0016258c0.0017612,0.0004064,0.0041999,0.0010838,0.0074514,0.0016257c0.0032516,0.0008129,0.0048774,0.0014904,0.0063676,0.0023032c0.0010839,0.0005419,0.0028452,0.0017612,0.0040644,0.0028451C0.7248307,0.570992,0.7264565,0.5727533,0.7269984,0.57465c0.0005419,0.0017613,0.0008129,0.0037935,0.0008129,0.0060967c0,0.010974-0.0111095,0.0165287-0.0331929,0.0165287c-0.010974,0-0.0193738-0.0014904-0.0249285-0.0046064C0.6653545,0.5905013,0.6612901,0.5864369,0.6612901,0.5723468H0.6033043c0,0.0265543,0.0081289,0.0422701,0.0242511,0.0551408C0.6436776,0.6404938,0.666032,0.6469969,0.6946185,0.6469969c0.0310251,0,0.0539214-0.0063676,0.0689598-0.0192383S0.786068,0.5991721,0.786068,0.5806112c0-0.0093482-0.0017612-0.0177481-0.0048773-0.0251995C0.7775328,0.5482312,0.7736038,0.5426766,0.7688619,0.5386121z M0.95,0.4852326V0.4355111H0.895943V0.3899895H0.8379572v0.0456571H0.8008354V0.485368h0.0372573v0.0953786c0,0.0212705,0.0066386,0.0369863,0.0199157,0.0471474c0.0132771,0.010161,0.0300768,0.0151739,0.0505344,0.0151739h0.0414572V0.5933464H0.9085428c-0.0083998,0-0.0124642-0.0040644-0.0124642-0.0124642V0.4852326H0.95z"/>
</svg>
